<svg xmlns="http://www.w3.org/2000/svg" width="644" height="521" viewBox="0 0 644 521">
<title>celnav: the intercept plot, three star sights and the fix</title>
<rect width="644" height="521" fill="#0b1a22"/>
<g font-family="ui-monospace,SFMono-Regular,Menlo,Consolas,DejaVu Sans Mono,monospace" font-size="13">
<text x="30.0 38.0 46.0 54.0 62.0 70.0 78.0 86.0 94.0" y="27.0" fill="#c9d6dc">INTERCEPT</text>
<text x="110.0 118.0 126.0 134.0" y="27.0" fill="#c9d6dc">PLOT</text>
<text x="158.0 166.0 174.0" y="27.0" fill="#c9d6dc">(AP</text>
<text x="190.0 198.0" y="27.0" fill="#c9d6dc">at</text>
<text x="214.0 222.0 230.0 238.0 246.0 254.0 262.0" y="27.0" fill="#c9d6dc">centre,</text>
<text x="278.0" y="27.0" fill="#c9d6dc">N</text>
<text x="294.0 302.0 310.0" y="27.0" fill="#c9d6dc">up)</text>
<text x="262.0" y="44.0" fill="#c9d6dc">|</text>
<text x="302.0" y="44.0" fill="#c9d6dc">N</text>
<text x="318.0" y="44.0" fill="#72868f">:</text>
<text x="406.0 414.0" y="44.0" fill="#c9d6dc">//</text>
<text x="262.0" y="61.0" fill="#c9d6dc">|</text>
<text x="318.0" y="61.0" fill="#72868f">:</text>
<text x="390.0 398.0" y="61.0" fill="#c9d6dc">//</text>
<text x="262.0" y="78.0" fill="#c9d6dc">|</text>
<text x="318.0" y="78.0" fill="#72868f">:</text>
<text x="374.0 382.0" y="78.0" fill="#c9d6dc">//</text>
<text x="30.0" y="95.0" fill="#c9d6dc">-</text>
<text x="262.0" y="95.0" fill="#c9d6dc">|</text>
<text x="318.0" y="95.0" fill="#72868f">:</text>
<text x="366.0 374.0" y="95.0" fill="#c9d6dc">//</text>
<text x="30.0 38.0 46.0 54.0" y="112.0" fill="#c9d6dc">----</text>
<text x="262.0" y="112.0" fill="#c9d6dc">|</text>
<text x="318.0" y="112.0" fill="#72868f">:</text>
<text x="350.0 358.0" y="112.0" fill="#c9d6dc">//</text>
<text x="62.0 70.0 78.0 86.0" y="129.0" fill="#c9d6dc">----</text>
<text x="262.0" y="129.0" fill="#c9d6dc">|</text>
<text x="318.0" y="129.0" fill="#72868f">:</text>
<text x="342.0 350.0" y="129.0" fill="#c9d6dc">//</text>
<text x="94.0 102.0 110.0 118.0" y="146.0" fill="#c9d6dc">----</text>
<text x="262.0" y="146.0" fill="#c9d6dc">|</text>
<text x="318.0" y="146.0" fill="#72868f">:</text>
<text x="326.0 334.0" y="146.0" fill="#c9d6dc">//</text>
<text x="126.0 134.0 142.0 150.0" y="163.0" fill="#c9d6dc">----</text>
<text x="262.0" y="163.0" fill="#c9d6dc">|</text>
<text x="310.0 318.0 326.0" y="163.0" fill="#c9d6dc">///</text>
<text x="158.0 166.0 174.0 182.0" y="180.0" fill="#c9d6dc">----</text>
<text x="262.0" y="180.0" fill="#c9d6dc">|</text>
<text x="302.0 310.0" y="180.0" fill="#c9d6dc">//</text>
<text x="318.0" y="180.0" fill="#72868f">:</text>
<text x="190.0 198.0 206.0 214.0" y="197.0" fill="#c9d6dc">----</text>
<text x="262.0" y="197.0" fill="#c9d6dc">|</text>
<text x="286.0 294.0" y="197.0" fill="#c9d6dc">//</text>
<text x="318.0" y="197.0" fill="#72868f">:</text>
<text x="222.0 230.0 238.0 246.0" y="214.0" fill="#c9d6dc">----</text>
<text x="262.0" y="214.0" fill="#c9d6dc">|</text>
<text x="278.0 286.0" y="214.0" fill="#c9d6dc">//</text>
<text x="318.0" y="214.0" fill="#72868f">:</text>
<text x="254.0" y="231.0" fill="#c9d6dc">-</text>
<text x="262.0 270.0" y="231.0" fill="#5cbf94">@b</text>
<text x="278.0" y="231.0" fill="#c9d6dc">-</text>
<text x="286.0" y="231.0" fill="#72868f">.</text>
<text x="318.0" y="231.0" fill="#72868f">:</text>
<text x="30.0" y="248.0" fill="#c9d6dc">W</text>
<text x="254.0 262.0" y="248.0" fill="#c9d6dc">/|</text>
<text x="286.0 294.0 302.0 310.0" y="248.0" fill="#c9d6dc">----</text>
<text x="318.0" y="248.0" fill="#72868f">:</text>
<text x="606.0" y="248.0" fill="#c9d6dc">E</text>
<text x="30.0 38.0 46.0 54.0 62.0 70.0 78.0 86.0 94.0 102.0 110.0 118.0 126.0 134.0 142.0 150.0 158.0 166.0 174.0 182.0 190.0 198.0 206.0 214.0 222.0 230.0" y="265.0" fill="#72868f">..........................</text>
<text x="238.0 246.0" y="265.0" fill="#c9d6dc">//</text>
<text x="254.0 262.0" y="265.0" fill="#72868f">..</text>
<text x="270.0" y="265.0" fill="#5cbf94">c</text>
<text x="278.0 286.0 294.0 302.0 310.0" y="265.0" fill="#72868f">.....</text>
<text x="318.0 326.0" y="265.0" fill="#5cbf94">+a</text>
<text x="334.0 342.0" y="265.0" fill="#c9d6dc">--</text>
<text x="350.0 358.0 366.0 374.0 382.0 390.0 398.0 406.0 414.0 422.0 430.0 438.0 446.0 454.0 462.0 470.0 478.0 486.0 494.0 502.0 510.0 518.0 526.0 534.0 542.0 550.0 558.0 566.0 574.0 582.0 590.0 598.0 606.0" y="265.0" fill="#72868f">.................................</text>
<text x="222.0 230.0" y="282.0" fill="#c9d6dc">//</text>
<text x="270.0" y="282.0" fill="#c9d6dc">|</text>
<text x="318.0" y="282.0" fill="#72868f">:</text>
<text x="350.0 358.0 366.0 374.0" y="282.0" fill="#c9d6dc">----</text>
<text x="214.0 222.0" y="299.0" fill="#c9d6dc">//</text>
<text x="270.0" y="299.0" fill="#c9d6dc">|</text>
<text x="318.0" y="299.0" fill="#72868f">:</text>
<text x="374.0 382.0 390.0 398.0 406.0" y="299.0" fill="#c9d6dc">-----</text>
<text x="198.0 206.0" y="316.0" fill="#c9d6dc">//</text>
<text x="270.0" y="316.0" fill="#c9d6dc">|</text>
<text x="318.0" y="316.0" fill="#72868f">:</text>
<text x="406.0 414.0 422.0 430.0 438.0" y="316.0" fill="#c9d6dc">-----</text>
<text x="190.0 198.0" y="333.0" fill="#c9d6dc">//</text>
<text x="270.0" y="333.0" fill="#c9d6dc">|</text>
<text x="318.0" y="333.0" fill="#72868f">:</text>
<text x="438.0 446.0 454.0 462.0 470.0" y="333.0" fill="#c9d6dc">-----</text>
<text x="174.0 182.0" y="350.0" fill="#c9d6dc">//</text>
<text x="270.0" y="350.0" fill="#c9d6dc">|</text>
<text x="318.0" y="350.0" fill="#72868f">:</text>
<text x="470.0 478.0 486.0 494.0 502.0" y="350.0" fill="#c9d6dc">-----</text>
<text x="166.0 174.0" y="367.0" fill="#c9d6dc">//</text>
<text x="270.0" y="367.0" fill="#c9d6dc">|</text>
<text x="318.0" y="367.0" fill="#72868f">:</text>
<text x="502.0 510.0 518.0 526.0 534.0" y="367.0" fill="#c9d6dc">-----</text>
<text x="150.0 158.0" y="384.0" fill="#c9d6dc">//</text>
<text x="270.0" y="384.0" fill="#c9d6dc">|</text>
<text x="318.0" y="384.0" fill="#72868f">:</text>
<text x="534.0 542.0 550.0 558.0 566.0" y="384.0" fill="#c9d6dc">-----</text>
<text x="134.0 142.0" y="401.0" fill="#c9d6dc">//</text>
<text x="270.0" y="401.0" fill="#c9d6dc">|</text>
<text x="318.0" y="401.0" fill="#72868f">:</text>
<text x="566.0 574.0 582.0 590.0 598.0" y="401.0" fill="#c9d6dc">-----</text>
<text x="126.0 134.0" y="418.0" fill="#c9d6dc">//</text>
<text x="270.0" y="418.0" fill="#c9d6dc">|</text>
<text x="318.0" y="418.0" fill="#72868f">:</text>
<text x="598.0 606.0" y="418.0" fill="#c9d6dc">--</text>
<text x="110.0 118.0" y="435.0" fill="#c9d6dc">//</text>
<text x="270.0" y="435.0" fill="#c9d6dc">|</text>
<text x="318.0" y="435.0" fill="#72868f">:</text>
<text x="102.0 110.0" y="452.0" fill="#c9d6dc">//</text>
<text x="270.0" y="452.0" fill="#c9d6dc">|</text>
<text x="318.0" y="452.0" fill="#72868f">:</text>
<text x="86.0 94.0" y="469.0" fill="#c9d6dc">//</text>
<text x="270.0" y="469.0" fill="#c9d6dc">|</text>
<text x="318.0" y="469.0" fill="#72868f">:</text>
<text x="70.0 78.0 86.0" y="486.0" fill="#c9d6dc">///</text>
<text x="270.0" y="486.0" fill="#c9d6dc">|</text>
<text x="302.0" y="486.0" fill="#c9d6dc">S</text>
<text x="318.0" y="486.0" fill="#72868f">:</text>
<text x="510.0" y="486.0" fill="#c9d6dc">5</text>
<text x="526.0 534.0" y="486.0" fill="#c9d6dc">nm</text>
<text x="550.0 558.0 566.0" y="486.0" fill="#c9d6dc">per</text>
<text x="582.0 590.0 598.0" y="486.0" fill="#c9d6dc">row</text>
<text x="30.0 38.0" y="503.0" fill="#c9d6dc">AP</text>
<text x="54.0" y="503.0" fill="#c9d6dc">=</text>
<text x="70.0" y="503.0" fill="#5cbf94">+</text>
<text x="110.0 118.0 126.0" y="503.0" fill="#c9d6dc">LOP</text>
<text x="142.0" y="503.0" fill="#c9d6dc">=</text>
<text x="158.0 166.0 174.0 182.0 190.0 198.0 206.0 214.0" y="503.0" fill="#c9d6dc">lettered</text>
<text x="230.0 238.0 246.0 254.0" y="503.0" fill="#c9d6dc">line</text>
<text x="294.0 302.0 310.0" y="503.0" fill="#c9d6dc">fix</text>
<text x="326.0" y="503.0" fill="#c9d6dc">=</text>
<text x="342.0" y="503.0" fill="#5cbf94">@</text>
<text x="382.0" y="503.0" fill="#c9d6dc">1</text>
<text x="398.0 406.0 414.0" y="503.0" fill="#c9d6dc">row</text>
<text x="430.0" y="503.0" fill="#c9d6dc">=</text>
<text x="446.0" y="503.0" fill="#c9d6dc">5</text>
<text x="462.0 470.0 478.0" y="503.0" fill="#c9d6dc">nm,</text>
<text x="494.0" y="503.0" fill="#c9d6dc">1</text>
<text x="510.0 518.0 526.0 534.0 542.0 550.0" y="503.0" fill="#c9d6dc">column</text>
<text x="566.0" y="503.0" fill="#c9d6dc">=</text>
<text x="582.0 590.0 598.0" y="503.0" fill="#c9d6dc">2.5</text>
<text x="614.0 622.0" y="503.0" fill="#c9d6dc">nm</text>
</g>
</svg>
