<svg xmlns="http://www.w3.org/2000/svg" width="612" height="504" viewBox="0 0 612 504">
<title>tides: a day at New London - the table, and the curve with the turns marked</title>
<rect width="612" height="504" fill="#0b1a22"/>
<g font-family="ui-monospace,SFMono-Regular,Menlo,Consolas,DejaVu Sans Mono,monospace" font-size="13">
<text x="30.0 38.0 46.0" y="27.0" fill="#9fe4f0">NEW</text>
<text x="62.0 70.0 78.0 86.0 94.0 102.0" y="27.0" fill="#9fe4f0">LONDON</text>
<text x="126.0 134.0 142.0 150.0 158.0" y="27.0" fill="#9fe4f0">State</text>
<text x="174.0 182.0 190.0 198.0" y="27.0" fill="#9fe4f0">Pier</text>
<text x="30.0 38.0 46.0" y="44.0" fill="#72868f">CT,</text>
<text x="62.0 70.0 78.0 86.0 94.0 102.0" y="44.0" fill="#72868f">United</text>
<text x="118.0 126.0 134.0 142.0 150.0 158.0" y="44.0" fill="#72868f">States</text>
<text x="190.0 198.0 206.0 214.0 222.0 230.0 238.0" y="44.0" fill="#72868f">41.3717</text>
<text x="254.0 262.0 270.0 278.0 286.0 294.0 302.0 310.0" y="44.0" fill="#72868f">-72.0956</text>
<text x="342.0 350.0 358.0 366.0 374.0 382.0 390.0" y="44.0" fill="#72868f">heights</text>
<text x="406.0 414.0 422.0 430.0 438.0" y="44.0" fill="#72868f">above</text>
<text x="454.0 462.0 470.0 478.0" y="44.0" fill="#72868f">MLLW</text>
<text x="30.0 38.0 46.0 54.0 62.0 70.0 78.0 86.0 94.0 102.0" y="61.0" fill="#5cbf94">2026-08-30</text>
<text x="134.0 142.0 150.0" y="61.0" fill="#72868f">Sun</text>
<text x="182.0 190.0 198.0 206.0 214.0" y="61.0" fill="#72868f">times</text>
<text x="230.0 238.0" y="61.0" fill="#72868f">in</text>
<text x="254.0 262.0 270.0" y="61.0" fill="#72868f">the</text>
<text x="286.0 294.0 302.0 310.0 318.0 326.0 334.0 342.0 350.0" y="61.0" fill="#72868f">station's</text>
<text x="366.0 374.0 382.0 390.0 398.0 406.0 414.0 422.0" y="61.0" fill="#72868f">standard</text>
<text x="438.0 446.0 454.0 462.0" y="61.0" fill="#72868f">time</text>
<text x="30.0 38.0 46.0 54.0 62.0 70.0 78.0 86.0 94.0 102.0 110.0 118.0 126.0 134.0 142.0 150.0 158.0 166.0 174.0 182.0 190.0 198.0 206.0 214.0 222.0 230.0 238.0 246.0 254.0 262.0 270.0 278.0 286.0 294.0 302.0 310.0 318.0 326.0 334.0 342.0 350.0 358.0 366.0 374.0 382.0 390.0 398.0 406.0 414.0 422.0 430.0 438.0 446.0 454.0 462.0 470.0 478.0 486.0 494.0 502.0 510.0 518.0 526.0 534.0 542.0 550.0 558.0 566.0 574.0 582.0" y="78.0" fill="#c9d6dc">----------------------------------------------------------------------</text>
<text x="86.0 94.0 102.0 110.0" y="95.0" fill="#c9d6dc">time</text>
<text x="158.0 166.0 174.0 182.0 190.0 198.0" y="95.0" fill="#c9d6dc">height</text>
<text x="30.0 38.0 46.0" y="112.0" fill="#c9d6dc">low</text>
<text x="86.0 94.0 102.0 110.0 118.0" y="112.0" fill="#c9d6dc">04:29</text>
<text x="166.0 174.0 182.0 190.0" y="112.0" fill="#c9d6dc">0.08</text>
<text x="206.0" y="112.0" fill="#c9d6dc">m</text>
<text x="30.0 38.0 46.0 54.0" y="129.0" fill="#5cbf94">HIGH</text>
<text x="70.0 78.0 86.0 94.0 102.0" y="129.0" fill="#c9d6dc">10:30</text>
<text x="150.0 158.0 166.0 174.0" y="129.0" fill="#c9d6dc">0.94</text>
<text x="190.0" y="129.0" fill="#c9d6dc">m</text>
<text x="30.0 38.0 46.0" y="146.0" fill="#c9d6dc">low</text>
<text x="86.0 94.0 102.0 110.0 118.0" y="146.0" fill="#c9d6dc">17:03</text>
<text x="166.0 174.0 182.0 190.0" y="146.0" fill="#c9d6dc">0.09</text>
<text x="206.0" y="146.0" fill="#c9d6dc">m</text>
<text x="30.0 38.0 46.0 54.0" y="163.0" fill="#5cbf94">HIGH</text>
<text x="70.0 78.0 86.0 94.0 102.0" y="163.0" fill="#c9d6dc">22:50</text>
<text x="150.0 158.0 166.0 174.0" y="163.0" fill="#c9d6dc">0.88</text>
<text x="190.0" y="163.0" fill="#c9d6dc">m</text>
<text x="30.0 38.0 46.0 54.0 62.0 70.0 78.0 86.0 94.0 102.0 110.0 118.0 126.0 134.0 142.0 150.0 158.0 166.0 174.0 182.0 190.0 198.0 206.0 214.0 222.0 230.0 238.0 246.0 254.0 262.0 270.0 278.0 286.0 294.0 302.0 310.0 318.0 326.0 334.0 342.0 350.0 358.0 366.0 374.0 382.0 390.0 398.0 406.0 414.0 422.0 430.0 438.0 446.0 454.0 462.0 470.0 478.0 486.0 494.0 502.0 510.0 518.0 526.0 534.0 542.0 550.0 558.0 566.0 574.0 582.0" y="180.0" fill="#c9d6dc">----------------------------------------------------------------------</text>
<text x="262.0 270.0" y="214.0" fill="#c9d6dc">**</text>
<text x="278.0" y="214.0" fill="#5cbf94">H</text>
<text x="286.0 294.0" y="214.0" fill="#c9d6dc">**</text>
<text x="246.0 254.0" y="231.0" fill="#c9d6dc">**</text>
<text x="302.0" y="231.0" fill="#c9d6dc">*</text>
<text x="542.0 550.0 558.0" y="231.0" fill="#c9d6dc">***</text>
<text x="566.0" y="231.0" fill="#5cbf94">H</text>
<text x="574.0 582.0" y="231.0" fill="#c9d6dc">**</text>
<text x="230.0 238.0" y="248.0" fill="#c9d6dc">**</text>
<text x="310.0 318.0" y="248.0" fill="#c9d6dc">**</text>
<text x="534.0" y="248.0" fill="#c9d6dc">*</text>
<text x="590.0" y="248.0" fill="#c9d6dc">*</text>
<text x="30.0" y="265.0" fill="#c9d6dc">*</text>
<text x="222.0" y="265.0" fill="#c9d6dc">*</text>
<text x="326.0" y="265.0" fill="#c9d6dc">*</text>
<text x="518.0 526.0" y="265.0" fill="#c9d6dc">**</text>
<text x="38.0" y="282.0" fill="#c9d6dc">*</text>
<text x="214.0" y="282.0" fill="#c9d6dc">*</text>
<text x="334.0" y="282.0" fill="#c9d6dc">*</text>
<text x="510.0" y="282.0" fill="#c9d6dc">*</text>
<text x="46.0" y="299.0" fill="#c9d6dc">*</text>
<text x="342.0" y="299.0" fill="#c9d6dc">*</text>
<text x="502.0" y="299.0" fill="#c9d6dc">*</text>
<text x="54.0" y="316.0" fill="#c9d6dc">*</text>
<text x="206.0" y="316.0" fill="#c9d6dc">*</text>
<text x="350.0" y="316.0" fill="#c9d6dc">*</text>
<text x="494.0" y="316.0" fill="#c9d6dc">*</text>
<text x="62.0" y="333.0" fill="#c9d6dc">*</text>
<text x="198.0" y="333.0" fill="#c9d6dc">*</text>
<text x="70.0" y="350.0" fill="#c9d6dc">*</text>
<text x="190.0" y="350.0" fill="#c9d6dc">*</text>
<text x="358.0" y="350.0" fill="#c9d6dc">*</text>
<text x="486.0" y="350.0" fill="#c9d6dc">*</text>
<text x="78.0" y="367.0" fill="#c9d6dc">*</text>
<text x="366.0" y="367.0" fill="#c9d6dc">*</text>
<text x="478.0" y="367.0" fill="#c9d6dc">*</text>
<text x="86.0" y="384.0" fill="#c9d6dc">*</text>
<text x="182.0" y="384.0" fill="#c9d6dc">*</text>
<text x="374.0" y="384.0" fill="#c9d6dc">*</text>
<text x="470.0" y="384.0" fill="#c9d6dc">*</text>
<text x="94.0" y="401.0" fill="#c9d6dc">*</text>
<text x="174.0" y="401.0" fill="#c9d6dc">*</text>
<text x="382.0 390.0" y="401.0" fill="#c9d6dc">**</text>
<text x="462.0" y="401.0" fill="#c9d6dc">*</text>
<text x="102.0" y="418.0" fill="#c9d6dc">*</text>
<text x="166.0" y="418.0" fill="#c9d6dc">*</text>
<text x="398.0" y="418.0" fill="#c9d6dc">*</text>
<text x="454.0" y="418.0" fill="#c9d6dc">*</text>
<text x="110.0 118.0" y="435.0" fill="#c9d6dc">**</text>
<text x="158.0" y="435.0" fill="#c9d6dc">*</text>
<text x="406.0 414.0" y="435.0" fill="#c9d6dc">**</text>
<text x="446.0" y="435.0" fill="#c9d6dc">*</text>
<text x="126.0" y="452.0" fill="#c9d6dc">*</text>
<text x="134.0" y="452.0" fill="#5cbf94">L</text>
<text x="142.0 150.0" y="452.0" fill="#c9d6dc">**</text>
<text x="422.0" y="452.0" fill="#c9d6dc">*</text>
<text x="430.0" y="452.0" fill="#5cbf94">L</text>
<text x="438.0" y="452.0" fill="#c9d6dc">*</text>
<text x="30.0 38.0" y="469.0" fill="#72868f">00</text>
<text x="102.0 110.0" y="469.0" fill="#72868f">03</text>
<text x="174.0 182.0" y="469.0" fill="#72868f">06</text>
<text x="238.0 246.0" y="469.0" fill="#72868f">09</text>
<text x="310.0 318.0" y="469.0" fill="#72868f">12</text>
<text x="382.0 390.0" y="469.0" fill="#72868f">15</text>
<text x="454.0 462.0" y="469.0" fill="#72868f">18</text>
<text x="518.0 526.0" y="469.0" fill="#72868f">21</text>
<text x="582.0 590.0" y="469.0" fill="#72868f">00</text>
<text x="30.0 38.0 46.0 54.0" y="486.0" fill="#72868f">0.94</text>
<text x="70.0" y="486.0" fill="#72868f">m</text>
<text x="86.0 94.0" y="486.0" fill="#72868f">at</text>
<text x="110.0 118.0 126.0" y="486.0" fill="#72868f">the</text>
<text x="142.0 150.0 158.0 166.0" y="486.0" fill="#72868f">top,</text>
<text x="182.0 190.0 198.0 206.0" y="486.0" fill="#72868f">0.08</text>
<text x="222.0" y="486.0" fill="#72868f">m</text>
<text x="238.0 246.0" y="486.0" fill="#72868f">at</text>
<text x="262.0 270.0 278.0" y="486.0" fill="#72868f">the</text>
<text x="294.0 302.0 310.0 318.0" y="486.0" fill="#72868f">foot</text>
</g>
</svg>
